<svg width="641" height="2200" viewBox="0 0 641 2200" fill="none" xmlns="http://www.w3.org/2000/svg">
<rect width="640" height="2200" fill="#000C2A"/>
<rect width="640" height="2200" fill="url(#paint0_linear)"/>
<path d="M0 123C189.681 151.705 303.286 153.707 497.599 164.6L431.176 250.478C506.4 277.503 640 295 640 295V431.208C475.985 419.384 376.223 398.271 194.453 337.465L278.152 277.503C156.001 248.6 115.429 228.568 0.00153141 207L0 123Z" fill="#0D2155"/>
<path d="M0 1228C189.681 1256.71 303.286 1258.71 497.599 1269.6L431.176 1355.48C506.4 1382.5 640 1400 640 1400V1536.21C475.985 1524.38 376.223 1503.27 194.453 1442.46L278.152 1382.5C156.001 1353.6 115.429 1333.57 0.00153141 1312L0 1228Z" fill="#183277"/>
<path d="M1 1312L641 1422.24V2200H1V1312Z" fill="#183277"/>
<defs>
<linearGradient id="paint0_linear" x1="320" y1="0" x2="320" y2="2200" gradientUnits="userSpaceOnUse">
<stop stop-color="#051742"/>
<stop offset="1" stop-color="#0D2154"/>
</linearGradient>
</defs>
</svg>
