<svg width="50" height="50" viewBox="0 0 50 50" fill="none" xmlns="http://www.w3.org/2000/svg">
<circle cx="25" cy="25" r="24.5" fill="white" stroke="#E5E5E5"/>
<circle cx="29.3496" cy="13.4" r="2.5" fill="#252525"/>
<circle cx="28.8501" cy="37.9501" r="2.5" fill="#252525"/>
<path d="M12.58 17.7804C12.7669 17.5109 13.074 17.35 13.402 17.35H30.7993C31.3516 17.35 31.7993 17.7978 31.7993 18.35V19.35C31.7993 19.9023 31.3516 20.35 30.7993 20.35H12.709C11.9021 20.35 11.4275 19.4436 11.887 18.7804L12.58 17.7804Z" fill="#252525"/>
<rect x="31.7295" y="17.3332" width="9" height="3" rx="1" transform="rotate(40 31.7295 17.3332)" fill="#252525"/>
<rect x="31.353" y="27.1208" width="7.5" height="3" rx="1" transform="rotate(-50 31.353 27.1208)" fill="#252525"/>
<rect x="17.0029" y="33.3708" width="7.5" height="3" rx="1" transform="rotate(-50 17.0029 33.3708)" fill="#252525"/>
<rect x="9.54395" y="36.9451" width="15" height="3" rx="1" transform="rotate(-50 9.54395 36.9451)" fill="#252525"/>
<rect x="19.3999" y="25.1833" width="7.5" height="6.5" rx="1" transform="rotate(-50 19.3999 25.1833)" fill="#252525"/>
<path d="M23.7715 22.0909C23.2606 21.6622 23.3046 20.8631 23.8594 20.493L27.2006 18.264C27.459 18.0917 27.7827 18.0492 28.0768 18.1489L31.165 19.1964C31.8312 19.4224 32.062 20.2473 31.6098 20.7862L28.3716 24.6454C28.0166 25.0685 27.3858 25.1237 26.9628 24.7687L23.7715 22.0909Z" fill="#252525"/>
</svg>
