<svg width="25" height="25" viewBox="0 0 25 25" fill="none" xmlns="http://www.w3.org/2000/svg">
<path d="M21.2449 14.9125C19.3801 18.1841 16.6573 21.1023 12.509 24.5058C8.74666 20.8131 6.09683 17.8275 4.16991 14.5905C2.24412 11.3553 1.036 7.86145 0.169228 3.14792C5.12343 1.06761 8.94526 0.111803 12.6954 0.151201C16.4454 0.190599 20.1379 1.2252 24.8347 3.15065C24.1233 8.00268 23.1102 11.6399 21.2449 14.9125Z" fill="white" stroke="black" stroke-width="0.3"/>
<path d="M12.0589 15.3708C12.0389 18.165 12.0194 20.8862 12.0408 23.0549C7.70208 18.9892 1.90273 11.7405 1.09378 3.45357C1.62734 3.15232 2.41636 2.84014 3.36126 2.53816C4.45301 2.18926 5.70988 1.86711 6.92929 1.59685C8.14813 1.32671 9.32209 1.11006 10.2459 0.971102C10.7082 0.901554 11.1034 0.852152 11.4078 0.824999C11.5424 0.812994 11.6558 0.80566 11.7472 0.802605C11.7697 0.889509 11.7939 1.00766 11.8178 1.16106C11.888 1.6121 11.9427 2.27303 11.9835 3.10617C12.065 4.76729 12.0887 7.05068 12.0877 9.56833C12.087 11.429 12.0728 13.4178 12.0589 15.3708Z" fill="black" stroke="black"/>
</svg>
