<svg width="78" height="60" viewBox="0 0 78 60" fill="none" xmlns="http://www.w3.org/2000/svg">
<g filter="url(#filter0_d)">
<path d="M22.4515 3.49229L31.483 9.763L13.0336 36.1114L3.99986 29.7859L22.4515 3.49229Z" fill="#252525"/>
<rect width="11.0282" height="32.1655" transform="matrix(-0.819152 0.573576 0.573576 0.819152 55.5508 3.52881)" fill="#252525"/>
<path d="M22.4058 3.4458H31.5499L38.9021 18.1043V36.9441L34.7665 49.3965H22.4058V3.4458Z" fill="#252525"/>
<path d="M55.4443 3.49219H43.9567L38.9021 18.1047V36.9445L43.3593 49.4429H55.4443V3.49219Z" fill="#252525"/>
<path d="M31.5498 0L40.6021 22.1941L38.9019 29.1786L32.331 11.5335L29.2063 3.44621L31.5498 0Z" fill="#636363"/>
<path d="M45.083 0L39.0397 17.737L40.7398 21.8266L44.3018 11.5335L47.4265 3.44621L45.083 0Z" fill="#636363"/>
<line x1="39.1519" y1="29.1323" x2="39.1519" y2="37.0358" stroke="black" stroke-width="0.5"/>
<line x1="46.2544" y1="12.5244" x2="51.7685" y2="12.5244" stroke="black" stroke-width="0.5"/>
<path d="M46.2544 17.3232C48.3948 18.7254 49.6012 18.7422 51.7685 17.3232" stroke="black" stroke-width="0.5"/>
<line x1="46.0957" y1="17.3696" x2="46.0957" y2="12.7746" stroke="black" stroke-width="0.5"/>
<line x1="51.5181" y1="17.2773" x2="51.5181" y2="12.6823" stroke="black" stroke-width="0.5"/>
</g>
<defs>
<filter id="filter0_d" x="0" y="0" width="78.0002" height="57.4429" filterUnits="userSpaceOnUse" color-interpolation-filters="sRGB">
<feFlood flood-opacity="0" result="BackgroundImageFix"/>
<feColorMatrix in="SourceAlpha" type="matrix" values="0 0 0 0 0 0 0 0 0 0 0 0 0 0 0 0 0 0 127 0"/>
<feOffset dy="4"/>
<feGaussianBlur stdDeviation="2"/>
<feColorMatrix type="matrix" values="0 0 0 0 0 0 0 0 0 0 0 0 0 0 0 0 0 0 0.25 0"/>
<feBlend mode="normal" in2="BackgroundImageFix" result="effect1_dropShadow"/>
<feBlend mode="normal" in="SourceGraphic" in2="effect1_dropShadow" result="shape"/>
</filter>
</defs>
</svg>

