<svg width="110" height="110" viewBox="0 0 110 110" fill="none" xmlns="http://www.w3.org/2000/svg">
<circle cx="55" cy="55" r="55" fill="white"/>
<mask id="path-2-inside-1" fill="white">
<path d="M110 55C110 65.2278 107.148 75.253 101.765 83.9494C96.3812 92.6458 88.6795 99.6687 79.5248 104.229C70.3701 108.79 60.1251 110.708 49.9406 109.767C39.7562 108.826 30.0358 105.064 21.8716 98.9034C13.7073 92.7428 7.42253 84.4277 3.72335 74.8923C0.0241645 65.3569 -0.942897 54.9789 0.930804 44.9242C2.8045 34.8695 7.44473 25.5364 14.3302 17.9734C21.2157 10.4105 30.0736 4.91724 39.9089 2.11089L55 55H110Z"/>
</mask>
<path d="M110 55C110 65.2278 107.148 75.253 101.765 83.9494C96.3812 92.6458 88.6795 99.6687 79.5248 104.229C70.3701 108.79 60.1251 110.708 49.9406 109.767C39.7562 108.826 30.0358 105.064 21.8716 98.9034C13.7073 92.7428 7.42253 84.4277 3.72335 74.8923C0.0241645 65.3569 -0.942897 54.9789 0.930804 44.9242C2.8045 34.8695 7.44473 25.5364 14.3302 17.9734C21.2157 10.4105 30.0736 4.91724 39.9089 2.11089L55 55H110Z" fill="#0E4980" fill-opacity="0.9" stroke="white" stroke-width="2" mask="url(#path-2-inside-1)"/>
</svg>

