<svg width="100" height="85" viewBox="0 0 100 85" fill="none" xmlns="http://www.w3.org/2000/svg">
<path d="M26.3595 4.98867L39.2617 13.9469L12.9054 51.5877L-3.80258e-05 42.5512L26.3595 4.98867Z" fill="#252525"/>
<rect width="15.7546" height="45.9509" transform="matrix(-0.819152 0.573576 0.573576 0.819152 73.6437 5.04175)" fill="#252525"/>
<path d="M26.2935 4.92285H39.3566L49.8597 25.8637V52.7778L43.9517 70.567H26.2935V4.92285Z" fill="#252525"/>
<path d="M73.4919 4.98853H57.0809L49.86 25.8637V52.7778L56.2275 70.6327H73.4919V4.98853Z" fill="#252525"/>
<path d="M39.3573 0.000244141L52.2892 31.7062L49.8604 41.6842L40.4733 16.4768L36.0094 4.92343L39.3573 0.000244141Z" fill="#636363"/>
<path d="M58.6908 0L50.0574 25.3386L52.4862 31.181L57.5748 16.4766L62.0386 4.92318L58.6908 0Z" fill="#636363"/>
</svg>
