<svg width="47" height="48" viewBox="0 0 47 48" fill="none" xmlns="http://www.w3.org/2000/svg">
<circle cx="31.6897" cy="4" r="4" fill="#252525"/>
<circle cx="30.8896" cy="43.28" r="4" fill="#252525"/>
<path d="M5.18703 10.5353C5.28044 10.4005 5.434 10.3201 5.59799 10.3201H35.1098C35.3859 10.3201 35.6098 10.5439 35.6098 10.8201V14.6201C35.6098 14.8962 35.3859 15.1201 35.1098 15.1201H2.96459C2.56116 15.1201 2.32383 14.6669 2.55363 14.3353L5.18703 10.5353Z" fill="#252525"/>
<rect x="35.4978" y="10.293" width="14.4" height="4.8" rx="0.5" transform="rotate(40 35.4978 10.293)" fill="#252525"/>
<rect x="34.894" y="25.9534" width="12" height="4.8" rx="0.5" transform="rotate(-50 34.894 25.9534)" fill="#252525"/>
<rect x="11.9341" y="35.9534" width="12" height="4.8" rx="0.5" transform="rotate(-50 11.9341 35.9534)" fill="#252525"/>
<rect y="41.6721" width="24" height="4.8" rx="0.5" transform="rotate(-50 0 41.6721)" fill="#252525"/>
<rect x="15.769" y="22.8533" width="12" height="10.4" rx="0.5" transform="rotate(-50 15.769 22.8533)" fill="#252525"/>
<path d="M21.6402 16.9622C21.3847 16.7479 21.4067 16.3483 21.6841 16.1633L28.7016 11.4819C28.8308 11.3957 28.9927 11.3745 29.1397 11.4244L36.1171 13.7911C36.4502 13.904 36.5656 14.3165 36.3395 14.586L29.4174 22.8354C29.2399 23.047 28.9245 23.0745 28.713 22.897L21.6402 16.9622Z" fill="#252525"/>
</svg>
